<svg width="81" height="80" viewBox="0 0 81 80" fill="none" xmlns="http://www.w3.org/2000/svg">
<circle cx="40.5" cy="40" r="40" fill="#FFF1F1"/>
<ellipse cx="40.1923" cy="40.3077" rx="26.7692" ry="26.7692" fill="url(#paint0_linear_535_5634)"/>
<path d="M44.7239 39.9974L51.6139 33.1359C52.178 32.5717 52.4949 31.8064 52.4949 31.0085C52.4949 30.2106 52.178 29.4453 51.6139 28.8811C51.0498 28.3169 50.2847 27.9999 49.487 27.9999C48.6892 27.9999 47.9241 28.3169 47.3601 28.8811L40.5 35.7726L33.6399 28.8811C33.0759 28.3169 32.3108 27.9999 31.513 27.9999C30.7153 27.9999 29.9502 28.3169 29.3861 28.8811C28.822 29.4453 28.5051 30.2106 28.5051 31.0085C28.5051 31.8064 28.822 32.5717 29.3861 33.1359L36.2761 39.9974L29.3861 46.8589C29.1053 47.1374 28.8825 47.4688 28.7304 47.834C28.5783 48.1991 28.5 48.5907 28.5 48.9863C28.5 49.3818 28.5783 49.7735 28.7304 50.1386C28.8825 50.5037 29.1053 50.8351 29.3861 51.1136C29.6646 51.3945 29.9959 51.6174 30.361 51.7695C30.726 51.9216 31.1176 51.9999 31.513 51.9999C31.9085 51.9999 32.3 51.9216 32.6651 51.7695C33.0301 51.6174 33.3615 51.3945 33.6399 51.1136L40.5 44.2222L47.3601 51.1136C47.6385 51.3945 47.9699 51.6174 48.3349 51.7695C48.7 51.9216 49.0915 51.9999 49.487 51.9999C49.8824 51.9999 50.274 51.9216 50.639 51.7695C51.0041 51.6174 51.3354 51.3945 51.6139 51.1136C51.8947 50.8351 52.1175 50.5037 52.2696 50.1386C52.4217 49.7735 52.5 49.3818 52.5 48.9863C52.5 48.5907 52.4217 48.1991 52.2696 47.834C52.1175 47.4688 51.8947 47.1374 51.6139 46.8589L44.7239 39.9974Z" fill="white"/>
<defs>
<linearGradient id="paint0_linear_535_5634" x1="66.9616" y1="67.0769" x2="6.06908" y2="17.5633" gradientUnits="userSpaceOnUse">
<stop offset="0.046875" stop-color="#C73600"/>
<stop offset="1" stop-color="#FEA88F"/>
</linearGradient>
</defs>
</svg>
