<svg width="81" height="80" viewBox="0 0 81 80" fill="none" xmlns="http://www.w3.org/2000/svg">
<circle opacity="0.3" cx="40.5" cy="40" r="40" fill="#CCF2DC"/>
<ellipse cx="40.1923" cy="40.3077" rx="26.7692" ry="26.7692" fill="url(#paint0_linear_535_5642)"/>
<path d="M29.774 38.6068L27.6845 40.7363C26.8713 41.5651 26.9324 42.9098 27.8174 43.6615L36.1656 50.7514C36.9861 51.4482 38.2109 51.3706 38.9369 50.5759L53.4661 34.672C54.2133 33.8541 54.1533 32.5846 53.3322 31.8408L50.7658 29.5159C49.8762 28.71 48.4822 28.8638 47.7896 29.8441L39.0873 42.1617C38.3449 43.2125 36.8178 43.2992 35.9614 42.339L32.694 38.6762C31.924 37.8129 30.5842 37.7811 29.774 38.6068Z" fill="white"/>
<defs>
<linearGradient id="paint0_linear_535_5642" x1="32.0993" y1="16.6512" x2="53.2657" y2="67.0769" gradientUnits="userSpaceOnUse">
<stop stop-color="#8DCF6E"/>
<stop offset="1" stop-color="#567A32"/>
</linearGradient>
</defs>
</svg>
