<svg width="81" height="80" viewBox="0 0 81 80" fill="none" xmlns="http://www.w3.org/2000/svg">
<circle cx="40.5" cy="40" r="40" fill="#FFF4EA"/>
<ellipse cx="40.1923" cy="40.3077" rx="26.7692" ry="26.7692" fill="url(#paint0_linear_132_490)"/>
<g clip-path="url(#clip0_132_490)">
<path d="M50.4843 38.8819C49.9323 38.8819 49.4844 38.434 49.4844 37.8819C49.4844 35.077 48.3923 32.441 46.4093 30.4568C46.0184 30.0659 46.0184 29.434 46.4093 29.0429C46.8002 28.652 47.4323 28.652 47.8233 29.0429C50.1844 31.4039 51.4843 34.543 51.4843 37.8819C51.4843 38.434 51.0364 38.8819 50.4843 38.8819Z" fill="white"/>
<path d="M30.4843 38.8819C29.9324 38.8819 29.4843 38.434 29.4843 37.8819C29.4843 34.543 30.7844 31.4039 33.1453 29.0429C33.5363 28.652 34.1683 28.652 34.5593 29.0429C34.9504 29.434 34.9504 30.0659 34.5593 30.4568C32.5762 32.4399 31.4844 35.077 31.4844 37.8819C31.4844 38.434 31.0363 38.8819 30.4843 38.8819Z" fill="white"/>
<path d="M49.8634 44.913C48.3513 43.6349 47.4843 41.7669 47.4843 39.7879V36.9999C47.4843 33.481 44.8703 30.568 41.4843 30.08V28.9999C41.4843 28.4469 41.0363 27.9999 40.4844 27.9999C39.9323 27.9999 39.4843 28.4469 39.4843 28.9999V30.08C36.0974 30.568 33.4843 33.481 33.4843 36.9999V39.7879C33.4843 41.7669 32.6173 43.6349 31.0964 44.9209C30.7073 45.254 30.4843 45.7379 30.4843 46.2499C30.4843 47.215 31.2692 48 32.2344 48H48.7344C49.6994 48 50.4843 47.215 50.4843 46.2499C50.4843 45.7379 50.2613 45.254 49.8634 44.913Z" fill="white"/>
<path d="M40.4844 51.9999C42.2953 51.9999 43.8103 50.7089 44.1584 48.9999H36.8104C37.1583 50.7089 38.6733 51.9999 40.4844 51.9999Z" fill="white"/>
</g>
<defs>
<linearGradient id="paint0_linear_132_490" x1="66.9615" y1="67.0769" x2="6.06906" y2="17.5633" gradientUnits="userSpaceOnUse">
<stop offset="0.046875" stop-color="#E7A000"/>
<stop offset="1" stop-color="#FADF89"/>
</linearGradient>
<clipPath id="clip0_132_490">
<rect width="24" height="24" fill="white" transform="translate(28.5 27.9999)"/>
</clipPath>
</defs>
</svg>
